<svg width="640" height="448" viewBox="0 0 640 448" fill="none" xmlns="http://www.w3.org/2000/svg">
<path d="M171.3 64H224V160H111.3L141.7 84.1C146.5 72 158.2 64 171.3 64ZM272 160V64H353.2C362.9 64 372.1 68.4 378.2 76L445.4 160H272ZM528.2 161L428.2 36C410 13.2 382.4 0 353.2 0H171.3C132 0 96.7 23.9 82.2 60.3L40.6 164.4C16.8 173.8 0 196.9 0 224V336C0 353.7 14.3 368 32 368H65.3C72.9 413.4 112.4 448 160 448C207.6 448 247.1 413.4 254.7 368H385.4C393 413.4 432.5 448 480.1 448C527.7 448 567.2 413.4 574.8 368H608.1C625.8 368 640.1 353.7 640.1 336V288C640.1 222.8 591.3 169 528.3 161H528.2ZM434.7 336C436.737 329.976 439.951 324.417 444.155 319.645C448.358 314.874 453.468 310.985 459.188 308.206C464.907 305.426 471.122 303.81 477.471 303.452C483.82 303.095 490.177 304.002 496.172 306.122C502.167 308.242 507.682 311.532 512.395 315.801C517.108 320.07 520.926 325.233 523.626 330.991C526.327 336.748 527.857 342.984 528.127 349.337C528.397 355.691 527.402 362.034 525.2 368C523.163 374.024 519.949 379.583 515.745 384.355C511.542 389.126 506.432 393.015 500.712 395.794C494.993 398.574 488.778 400.19 482.429 400.548C476.08 400.905 469.723 399.998 463.728 397.878C457.733 395.758 452.218 392.468 447.505 388.199C442.792 383.93 438.974 378.767 436.274 373.009C433.573 367.252 432.043 361.016 431.773 354.663C431.503 348.309 432.498 341.966 434.7 336ZM160 304C172.73 304 184.939 309.057 193.941 318.059C202.943 327.061 208 339.27 208 352C208 364.73 202.943 376.939 193.941 385.941C184.939 394.943 172.73 400 160 400C147.27 400 135.061 394.943 126.059 385.941C117.057 376.939 112 364.73 112 352C112 339.27 117.057 327.061 126.059 318.059C135.061 309.057 147.27 304 160 304Z" fill="url(#paint0_linear_607_1238)"/>
<defs>
<linearGradient id="paint0_linear_607_1238" x1="610.155" y1="0.0435964" x2="320.531" y2="536.593" gradientUnits="userSpaceOnUse">
<stop stop-color="#C061CB"/>
<stop offset="0.45" stop-color="#F6D32D"/>
<stop offset="0.985" stop-color="#F66151"/>
</linearGradient>
</defs>
</svg>
