<svg width="512" height="513" viewBox="0 0 512 513" fill="none" xmlns="http://www.w3.org/2000/svg">
<path d="M431.453 7.40393L431.455 7.40166C440.558 -1.79935 455.44 -1.80223 464.646 7.40311L464.646 7.40355L504.546 47.4031L504.548 47.4054C513.749 56.5087 513.752 71.3907 504.546 80.5965L456.546 128.596C454.195 130.948 451.355 132.808 448.224 133.982L448.224 133.982L407.224 149.382L407.123 149.42L407.046 149.496L329.446 227.096L329.159 227.383L329.381 227.723C358.701 272.7 359.422 326.518 327.848 358.095C316.919 368.924 303.405 375.981 288.489 379.362L288.488 379.363C271.693 383.207 257.413 398.678 256.5 415.924L256.5 415.927C255.305 441.417 245.848 465.094 228.046 482.896C183.506 527.436 102.83 519.173 47.8532 464.196C-7.12323 409.22 -15.3868 328.543 29.1534 283.903C47.0554 266.101 70.6333 256.744 96.125 255.449L96.1261 255.449C113.369 254.536 128.943 240.259 132.688 223.46C136.069 208.542 143.027 195.03 153.953 184.104L153.954 184.103C185.43 152.528 239.348 153.248 284.327 182.569L284.667 182.791L284.953 182.503L362.453 104.903L362.53 104.827L362.568 104.726L377.968 63.7258L377.968 63.7256C379.142 60.5949 381.002 57.7552 383.353 55.4039C383.353 55.4038 383.353 55.4037 383.353 55.4036L431.453 7.40393ZM242.294 269.755C233.199 260.66 220.863 255.55 208 255.55C195.137 255.55 182.801 260.66 173.705 269.755C164.609 278.851 159.5 291.187 159.5 304.05C159.5 316.913 164.609 329.249 173.705 338.345C182.801 347.44 195.137 352.55 208 352.55C220.863 352.55 233.199 347.44 242.294 338.345C251.39 329.249 256.5 316.913 256.5 304.05C256.5 291.187 251.39 278.851 242.294 269.755Z" fill="url(#paint0_linear_607_1239)" stroke="black"/>
<defs>
<linearGradient id="paint0_linear_607_1239" x1="488" y1="0.0498293" x2="105" y2="496.55" gradientUnits="userSpaceOnUse">
<stop stop-color="#C061CB"/>
<stop offset="0.45" stop-color="#F6D32D"/>
<stop offset="0.985" stop-color="#F66151"/>
</linearGradient>
</defs>
</svg>
