<svg width="576" height="448" viewBox="0 0 576 448" fill="none" xmlns="http://www.w3.org/2000/svg">
<path d="M160 0C124.7 0 96 28.7 96 64V288C96 323.3 124.7 352 160 352H512C547.3 352 576 323.3 576 288V64C576 28.7 547.3 0 512 0H160ZM396 106.7L492 250.7C496.9 258.1 497.4 267.5 493.2 275.3C489 283.1 480.9 288 472 288H328H280H200C190.8 288 182.4 282.7 178.4 274.4C174.4 266.1 175.5 256.2 181.3 249L245.3 169C249.9 163.3 256.7 160 264 160C271.3 160 278.2 163.3 282.7 169L300 190.6L356 106.6C360.5 100 368 96 376 96C384 96 391.5 100 396 106.7ZM192 96C192 87.5131 195.371 79.3737 201.373 73.3726C207.374 67.3714 215.513 64 224 64C232.487 64 240.626 67.3714 246.627 73.3726C252.629 79.3737 256 87.5131 256 96C256 104.487 252.629 112.626 246.627 118.627C240.626 124.629 232.487 128 224 128C215.513 128 207.374 124.629 201.373 118.627C195.371 112.626 192 104.487 192 96ZM48 88C48 74.7 37.3 64 24 64C10.7 64 0 74.7 0 88V312C0 387.1 60.9 448 136 448H456C469.3 448 480 437.3 480 424C480 410.7 469.3 400 456 400H136C87.4 400 48 360.6 48 312V88Z" fill="url(#paint0_linear_607_1241)"/>
<defs>
<linearGradient id="paint0_linear_607_1241" x1="549.054" y1="0.0435964" x2="243.403" y2="509.581" gradientUnits="userSpaceOnUse">
<stop stop-color="#C061CB"/>
<stop offset="0.45" stop-color="#F6D32D"/>
<stop offset="0.985" stop-color="#F66151"/>
</linearGradient>
</defs>
</svg>
